# xmcd CD database file
#
# Track frame offsets:
#	150
#	19305
#	41417
#	63007
#	82712
#	103030
#	123535
#	144675
#	166325
#	191282
#
# Disc length: 2834 seconds
#
# Revision: 3
# Processed by: cddbd v1.5.2PL0 Copyright (c) Steve Scherf et al.
# Submitted via: CDex 1.51
#
DISCID=790b100a
DTITLE=Brenda Russell - Soul Talkin
DYEAR=1993
DGENRE=Westcoast
TTITLE0=Matters Of The Heart
TTITLE1=Soul Talkin
TTITLE2=In Over My Heart
TTITLE3=No Time For Time
TTITLE4=You'll Fall  In Love Again
TTITLE5=10 000 Words
TTITLE6=Life Is Waiting
TTITLE7=Got To Love
TTITLE8=The Universe Is Calling You
TTITLE9=Who Are You?
EXTD=YEAR: 1993
EXTT0=
EXTT1=
EXTT2=
EXTT3=
EXTT4=
EXTT5=
EXTT6=
EXTT7=
EXTT8=
EXTT9=
PLAYORDER=
